<?xml version="1.0" encoding="utf-8"?>
<!-- Generator: Adobe Illustrator 25.2.1, SVG Export Plug-In . SVG Version: 6.00 Build 0)  -->
<svg version="1.1" id="Layer_1" xmlns="http://www.w3.org/2000/svg" xmlns:xlink="http://www.w3.org/1999/xlink" x="0px" y="0px"
	 viewBox="0 0 79.8 70.9" style="enable-background:new 0 0 79.8 70.9;" xml:space="preserve">
<style type="text/css">
	.st0{fill:#414042;}
</style>
<g>
	<path class="st0" d="M78.8,61.8C76.4,60,75,57.1,75,54.1v-7.2c0-7.4-5.5-13.4-12.7-14.3c0-9.6,0-18.9,0-30c0-1.5-1.2-2.7-2.7-2.7
		c-19,0-38,0-57,0C1.2,0,0,1.2,0,2.7c0,19,0,33,0,52c0,1.5,1.2,2.6,2.7,2.6h43c-0.6,1.7-1.8,3.3-3.3,4.4c-0.8,0.6-1.2,1.7-0.8,2.7
		c0.3,1,1.2,1.6,2.3,1.6h12c0,2.7,2.1,4.8,4.8,4.8c2.7,0,4.8-2.1,4.8-4.8h12c1,0,2-0.7,2.3-1.6C80,63.5,79.7,62.4,78.8,61.8z
		 M21.2,3.7c1.4,0,2.5,1.1,2.5,2.5c0,1.4-1.1,2.5-2.5,2.5c-1.4,0-2.5-1.1-2.5-2.5C18.7,4.9,19.8,3.7,21.2,3.7z M13.7,3.7
		c1.4,0,2.5,1.1,2.5,2.5c0,1.4-1.1,2.5-2.5,2.5s-2.5-1.1-2.5-2.5C11.2,4.9,12.3,3.7,13.7,3.7z M6.2,3.7c1.4,0,2.5,1.1,2.5,2.5
		c0,1.4-1.1,2.5-2.5,2.5c-1.4,0-2.5-1.1-2.5-2.5C3.7,4.9,4.9,3.7,6.2,3.7z M3.7,52.3c0-13.7,0-24.8,0-38.5c0-0.7,0.6-1.3,1.3-1.3
		c17,0,35.2,0,52.2,0c0.7,0,1.3,0.6,1.3,1.3c0,6.7,0,12.8,0,18.9c-7,1-12.4,7-12.4,14.2v6.7H5.1C4.4,53.6,3.7,53,3.7,52.3z
		 M48.6,61.3c0.7-1.2,1.3-2.6,1.6-4l0,0c0,0,0,0,0,0c0.1-0.5,0.2-1,0.3-1.6c0,0,0-0.1,0-0.1c0.1-0.5,0.1-1,0.1-1.6v-0.5v-6.7
		c0.2-4.7,3.6-8.5,8-9.4c0.3-0.1,0.6-0.1,1-0.1c0,0,0,0,0,0c0.3,0,0.7-0.1,1-0.1c0.3,0,0.6,0,0.9,0c0.3,0,0.6,0.1,0.8,0.1l0,0
		c4.6,0.8,8.1,4.7,8.3,9.5v7.2c0,2.5,0.7,5,2,7.2H48.6z"/>
	<path class="st0" d="M30.5,24.9h1.2c0.3,0,0.6-0.3,0.6-0.6V23c0-0.3-0.3-0.6-0.6-0.6h-1.2c-0.3,0-0.6,0.3-0.6,0.6v1.2
		C29.9,24.6,30.2,24.9,30.5,24.9z"/>
	<path class="st0" d="M35.5,24.9h1.2c0.3,0,0.6-0.3,0.6-0.6V23c0-0.3-0.3-0.6-0.6-0.6h-1.2c-0.3,0-0.6,0.3-0.6,0.6v1.2
		C34.9,24.6,35.2,24.9,35.5,24.9z"/>
	<path class="st0" d="M38.6,38.6h-8.1c-0.3,0-0.6,0.3-0.6,0.6V43c0,0.3,0.3,0.6,0.6,0.6h8.1c0.3,0,0.6-0.3,0.6-0.6v-3.7
		C39.3,38.9,39,38.6,38.6,38.6z"/>
	<path class="st0" d="M30.5,32.4h5c0.3,0,0.6-0.3,0.6-0.6v-1.2c0-0.3-0.3-0.6-0.6-0.6h-5c-0.3,0-0.6,0.3-0.6,0.6v1.2
		C29.9,32.1,30.2,32.4,30.5,32.4z"/>
	<path class="st0" d="M24.3,17.4h-15c-0.3,0-0.6,0.3-0.6,0.6v29.9c0,0.3,0.3,0.6,0.6,0.6h15c0.3,0,0.6-0.3,0.6-0.6V18
		C24.9,17.7,24.6,17.4,24.3,17.4z"/>
	<path class="st0" d="M40.5,24.9H53c0.3,0,0.6-0.3,0.6-0.6V23c0-0.3-0.3-0.6-0.6-0.6H40.5c-0.3,0-0.6,0.3-0.6,0.6v1.2
		C39.9,24.6,40.2,24.9,40.5,24.9z"/>
	<path class="st0" d="M45.5,29.9h-6.2c-0.3,0-0.6,0.3-0.6,0.6v1.2c0,0.3,0.3,0.6,0.6,0.6h6.2c0.3,0,0.6-0.3,0.6-0.6v-1.2
		C46.1,30.1,45.8,29.9,45.5,29.9z"/>
</g>
</svg>
