<?xml version="1.0" encoding="utf-8"?>
<!-- Generator: Adobe Illustrator 25.2.1, SVG Export Plug-In . SVG Version: 6.00 Build 0)  -->
<svg version="1.1" id="Layer_1" xmlns="http://www.w3.org/2000/svg" xmlns:xlink="http://www.w3.org/1999/xlink" x="0px" y="0px"
	 viewBox="0 0 100 100" style="enable-background:new 0 0 100 100;" xml:space="preserve">
<style type="text/css">
	.st0{fill:#0074A2;}
	.st1{fill:#FFFFFF;}
	.st2{fill-rule:evenodd;clip-rule:evenodd;fill:url(#SVGID_1_);}
	.st3{fill-rule:evenodd;clip-rule:evenodd;fill:#E51753;}
	.st4{fill-rule:evenodd;clip-rule:evenodd;fill:#7DCC00;}
	.st5{fill-rule:evenodd;clip-rule:evenodd;fill:#FFCE00;}
</style>
<path class="st0" d="M87.2,100H12.8C5.7,100,0,94.3,0,87.2V12.8C0,5.7,5.7,0,12.8,0h74.4C94.3,0,100,5.7,100,12.8v74.4
	C100,94.3,94.3,100,87.2,100z"/>
<g>
	<path class="st1" d="M43.1,41.3h1.2c0.3,0,0.6-0.3,0.6-0.6v-1.2c0-0.3-0.3-0.6-0.6-0.6h-1.2c-0.3,0-0.6,0.3-0.6,0.6v1.2
		C42.5,41,42.8,41.3,43.1,41.3z"/>
	<path class="st1" d="M48.1,41.3h1.2c0.3,0,0.6-0.3,0.6-0.6v-1.2c0-0.3-0.3-0.6-0.6-0.6h-1.2c-0.3,0-0.6,0.3-0.6,0.6v1.2
		C47.5,41,47.8,41.3,48.1,41.3z"/>
	<path class="st1" d="M51.2,55h-8.1c-0.3,0-0.6,0.3-0.6,0.6v3.7c0,0.3,0.3,0.6,0.6,0.6h8.1c0.3,0,0.6-0.3,0.6-0.6v-3.7
		C51.8,55.2,51.6,55,51.2,55z"/>
	<path class="st1" d="M43.1,48.7h5c0.3,0,0.6-0.3,0.6-0.6v-1.2c0-0.3-0.3-0.6-0.6-0.6h-5c-0.3,0-0.6,0.3-0.6,0.6v1.2
		C42.5,48.5,42.8,48.7,43.1,48.7z"/>
	<path class="st1" d="M36.9,33.8h-15c-0.3,0-0.6,0.3-0.6,0.6v29.9c0,0.3,0.3,0.6,0.6,0.6h15c0.3,0,0.6-0.3,0.6-0.6V34.4
		C37.5,34.1,37.2,33.8,36.9,33.8z"/>
	<path class="st1" d="M53.1,41.3h12.5c0.3,0,0.6-0.3,0.6-0.6v-1.2c0-0.3-0.3-0.6-0.6-0.6H53.1c-0.3,0-0.6,0.3-0.6,0.6v1.2
		C52.5,41,52.8,41.3,53.1,41.3z"/>
	<path class="st1" d="M58.1,46.2h-6.2c-0.3,0-0.6,0.3-0.6,0.6v1.2c0,0.3,0.3,0.6,0.6,0.6h6.2c0.3,0,0.6-0.3,0.6-0.6v-1.2
		C58.7,46.5,58.4,46.2,58.1,46.2z"/>
</g>
<g>
	<path class="st1" d="M49.4,41.3c0.3,0,0.6-0.3,0.6-0.6v-1.2c0-0.3-0.3-0.6-0.6-0.6h-1.2c-0.3,0-0.6,0.3-0.6,0.6v1.2
		c0,0.3,0.3,0.6,0.6,0.6H49.4z"/>
	<path class="st1" d="M43.1,41.3h1.2c0.3,0,0.6-0.3,0.6-0.6v-1.2c0-0.3-0.3-0.6-0.6-0.6h-1.2c-0.3,0-0.6,0.3-0.6,0.6v1.2
		C42.5,41,42.8,41.3,43.1,41.3z"/>
	<path class="st1" d="M42.5,48.1c0,0.3,0.3,0.6,0.6,0.6h5c0.3,0,0.6-0.3,0.6-0.6v-1.2c0-0.3-0.3-0.6-0.6-0.6h-5
		c-0.3,0-0.6,0.3-0.6,0.6V48.1z"/>
	<path class="st1" d="M42.5,59.3c0,0.3,0.3,0.6,0.6,0.6h8.1c0.3,0,0.6-0.3,0.6-0.6v-3.7c0-0.3-0.3-0.6-0.6-0.6h-8.1
		c-0.3,0-0.6,0.3-0.6,0.6V59.3z"/>
	<path class="st1" d="M58.1,48.7c0.3,0,0.6-0.3,0.6-0.6v-1.2c0-0.3-0.3-0.6-0.6-0.6h-6.2c-0.3,0-0.6,0.3-0.6,0.6v1.2
		c0,0.3,0.3,0.6,0.6,0.6H58.1z"/>
	<path class="st1" d="M58.7,70.5V70h-41c-0.7,0-1.3-0.6-1.3-1.3c0-13.7,0-24.8,0-38.5c0-0.7,0.6-1.3,1.3-1.3c17,0,35.2,0,52.2,0
		c0.7,0,1.3,0.6,1.3,1.3c0,6.7,0,12.7,0,18.7c0.7-0.1,1.3-0.2,2-0.2c0.6,0,1.2,0,1.7,0.1c0-9.6,0-18.9,0-29.8c0-1.5-1.2-2.7-2.7-2.7
		c-19,0-38,0-57.1,0c-1.5,0-2.7,1.2-2.7,2.7c0,19,0,33,0,52.1c0,1.5,1.2,2.7,2.7,2.7h42.9C58.5,72.7,58.7,71.6,58.7,70.5z
		 M33.8,20.1c1.4,0,2.5,1.1,2.5,2.5c0,1.4-1.1,2.5-2.5,2.5c-1.4,0-2.5-1.1-2.5-2.5C31.3,21.2,32.4,20.1,33.8,20.1z M26.3,20.1
		c1.4,0,2.5,1.1,2.5,2.5c0,1.4-1.1,2.5-2.5,2.5s-2.5-1.1-2.5-2.5C23.8,21.2,24.9,20.1,26.3,20.1z M18.8,20.1c1.4,0,2.5,1.1,2.5,2.5
		c0,1.4-1.1,2.5-2.5,2.5c-1.4,0-2.5-1.1-2.5-2.5C16.3,21.2,17.4,20.1,18.8,20.1z"/>
	<path class="st1" d="M21.9,33.8c-0.3,0-0.6,0.3-0.6,0.6v29.9c0,0.3,0.3,0.6,0.6,0.6h15c0.3,0,0.6-0.3,0.6-0.6V34.4
		c0-0.3-0.3-0.6-0.6-0.6H21.9z"/>
	<path class="st1" d="M65.6,38.8H53.1c-0.3,0-0.6,0.3-0.6,0.6v1.2c0,0.3,0.3,0.6,0.6,0.6h12.5c0.3,0,0.6-0.3,0.6-0.6v-1.2
		C66.2,39.1,65.9,38.8,65.6,38.8z"/>
</g>
<linearGradient id="SVGID_1_" gradientUnits="userSpaceOnUse" x1="53.8167" y1="68.092" x2="92.5406" y2="68.092">
	<stop  offset="0" style="stop-color:#FDBA4D"/>
	<stop  offset="0.3568" style="stop-color:#FBB14C"/>
	<stop  offset="0.9483" style="stop-color:#F79748"/>
	<stop  offset="0.9944" style="stop-color:#F79548"/>
</linearGradient>
<path class="st2" d="M92.4,81c-0.3,1-1.3,1.7-2.3,1.7H78c0,2.7-2.2,4.8-4.8,4.8c-2.7,0-4.8-2.2-4.8-4.8H56.2c-1,0-2-0.7-2.3-1.7
	c-0.3-1,0-2.1,0.8-2.7c2.4-1.8,3.9-4.7,3.9-7.7v-7.3c0-8,6.5-14.5,14.5-14.5s14.5,6.5,14.5,14.5v7.3c0,3,1.4,5.9,3.9,7.7
	C92.4,78.9,92.7,80,92.4,81z M83.3,70.5v-7.3c-0.2-5.4-4.7-9.7-10.1-9.7s-9.9,4.3-10.1,9.7v7.3c0,2.6-0.7,5.1-2,7.3h24.2
	C84,75.6,83.3,73.1,83.3,70.5z"/>
<path class="st3" d="M18.8,20.1c1.4,0,2.5,1.1,2.5,2.5c0,1.4-1.1,2.5-2.5,2.5c-1.4,0-2.5-1.1-2.5-2.5C16.3,21.2,17.4,20.1,18.8,20.1
	L18.8,20.1z"/>
<path class="st4" d="M33.8,20.1c1.4,0,2.5,1.1,2.5,2.5c0,1.4-1.1,2.5-2.5,2.5c-1.4,0-2.5-1.1-2.5-2.5C31.3,21.2,32.4,20.1,33.8,20.1
	L33.8,20.1z"/>
<path class="st5" d="M26.3,20.1c1.4,0,2.5,1.1,2.5,2.5c0,1.4-1.1,2.5-2.5,2.5s-2.5-1.1-2.5-2.5C23.8,21.2,24.9,20.1,26.3,20.1
	L26.3,20.1z"/>
</svg>
